<?xml version="1.0" encoding="utf-8"?>
<!-- Generator: Adobe Illustrator 23.0.6, SVG Export Plug-In . SVG Version: 6.00 Build 0)  -->
<svg version="1.1" id="Layer_1" xmlns="http://www.w3.org/2000/svg" xmlns:xlink="http://www.w3.org/1999/xlink" x="0px" y="0px"
	 viewBox="0 0 512 512" style="enable-background:new 0 0 512 512;" xml:space="preserve">
<style type="text/css">
	.st0{fill:none;stroke:#00AEEF;stroke-width:15;stroke-miterlimit:10;}
	.st1{fill:#2B3990;}
</style>
<rect x="86.29" y="86.29" transform="matrix(0.7071 -0.7071 0.7071 0.7071 -106.0387 256)" class="st0" width="339.41" height="339.41"/>
<g>
	<path class="st1" d="M238.96,343.11l-11.57-157.78c-2.54,26.56-7.23,51.34-14.06,74.34c-6.84,23-14.6,40.77-23.29,53.32
		c-8.69,12.55-17.58,21.36-26.66,26.44s-18.07,7.62-26.95,7.62c-5.37,0-9.5-1.1-12.38-3.3c-2.88-2.2-4.32-4.86-4.32-7.98
		c0-2.64,1.05-4.93,3.15-6.88c2.1-1.95,4.76-2.93,7.98-2.93c2.34,0,5.71,0.51,10.11,1.54c4,1.03,7.32,1.54,9.96,1.54
		c4.59,0,9.38-1.71,14.36-5.12c7.52-5.07,14.96-14.17,22.34-27.29c7.37-13.12,13.96-31.41,19.78-54.88
		c5.81-23.47,9.45-46.37,10.91-68.71c-22.17,0-40.19,5.52-54.05,16.55c-11.04,8.79-16.55,18.6-16.55,29.44
		c0,4.79,2.6,10.55,7.81,17.29c2.8,3.61,4.2,6.54,4.2,8.79c0,2.54-0.8,4.64-2.4,6.3c-1.6,1.66-3.52,2.49-5.75,2.49
		c-3.79,0-7.14-2.15-10.05-6.45c-3.98-5.76-5.97-12.6-5.97-20.51c0-11.13,3.74-21.8,11.21-32.01c7.47-10.2,17.82-17.97,31.05-23.29
		c13.23-5.32,28.73-8.03,46.51-8.13c9.57,0,17.23-0.88,23-2.64c-0.32,8.79-0.45,13.53-0.41,14.21c-0.04,0.88,0.09,2.89,0.39,6.01
		l8.5,111.56c23.62-41.21,46.71-75.12,69.25-101.75c16-18.85,29.95-31.59,41.83-38.23c-6.78,18.56-14.04,43.02-21.8,73.39
		l-17.97,70.31c-0.98,3.91-2.31,9.62-3.98,17.14l-3.54,15.67c7.43,1.76,14.22,2.64,20.38,2.64c4.98,0,10.31-0.59,15.98-1.76
		l-1.9,8.5c-4.98,0.88-8.84,1.32-11.58,1.32c-4.01,0-9.77-0.44-17.29-1.32c-6.16-0.78-11.63-1.17-16.42-1.17
		c-5.08,0-10.85,0.97-17.29,2.93c5.38-14.06,11.01-32.96,16.89-56.69l11.31-44.82c4.79-19.34,8.96-32.62,12.48-39.84
		c-7.84,8.9-19.94,25.23-36.3,48.98c-13.13,19.16-27.82,43.41-44.08,72.74L238.96,343.11z"/>
</g>
</svg>
